<svg xmlns="http://www.w3.org/2000/svg" viewBox="0 0 92.4 24.9" overflow="scroll"><path fill="#EB1C5E" d="M68.5 12.4V.4c0-.2 0-.3.3-.3h14.3c1.5 0 3 .2 4.5.7 2.5 1 4.2 2.6 4.7 5.3.4 2.3.1 4.5-1.5 6.3-.9 1.1-2 1.8-3.3 2.3-1.1.4-2.2.7-3.4.8-2.3.2-4.6.1-6.9.1-.2 0-.2 0-.2-.2V14c0-.2.1-.3.3-.3h6.2c1.9 0 3.8-.5 5.2-1.9 1.2-1.1 1.8-2.5 1.8-4.1 0-.9-.2-1.8-.6-2.6-.6-1.2-1.5-1.9-2.7-2.4-1.4-.5-2.7-.7-4.1-.7H70.7c-.2 0-.3.1-.3.3V24.5c0 .2-.1.3-.3.3h-1.4c-.2 0-.3 0-.3-.3V13.2c.1-.3.1-.5.1-.8zM32.3 24.9l.9-1.5C37.1 17 41 10.6 45 4.2L47.4.3c.1-.2.3-.3.6-.3h1.2c.2 0 .3.1.4.2 1.3 2.1 2.6 4.2 3.9 6.4 1.5 2.4 2.9 4.7 4.4 7.1.1.1.1.2.2.3h-2.2c-.1 0-.2-.1-.2-.2-1.4-2.2-2.8-4.5-4.2-6.7-1-1.5-1.9-3.1-2.9-4.6 0-.1-.1-.1-.1-.2-.1.2-.2.4-.4.6-4.5 7.3-9 14.5-13.6 21.8-.1.2-.3.3-.5.3-.5-.1-1.1-.1-1.7-.1zM0 12.6V.6C0 .3 0 .3.4.3h20.3c.3 0 .3.1.3.3v1.3c0 .1 0 .2-.2.2H2.4c-.3-.1-.4 0-.4.3V24.6c0 .2-.1.3-.3.3H.3c-.3 0-.3-.1-.3-.3v-12zM28.2 12.6v12c0 .2 0 .3-.3.3h-1.5c-.2 0-.3-.1-.2-.2v-.1-24c0-.3.1-.4.3-.3h1.4c.2 0 .3 0 .2.2v3.7c.1 2.8.1 5.6.1 8.4z"/><path fill="#EB1C5E" d="M11.3 13.8H7c-.2 0-.3 0-.3-.2v-1.3c0-.2.1-.3.3-.3h8.6c.2 0 .2 0 .2.2v1.4c0 .2 0 .3-.3.3-1.3-.1-2.7-.1-4.2-.1zM58.5 18.3h2.1c.1 0 .2.1.2.2 1.1 1.8 2.3 3.6 3.4 5.5.2.3.3.5.5.8-.1.1-.1.1-.2.1h-1.8c-.1 0-.2 0-.3-.1l-3.9-6.3c.1-.1.1-.1 0-.2z"/></svg>